<?xml version="1.0" standalone="no"?>
<!DOCTYPE svg PUBLIC "-//W3C//DTD SVG 20010904//EN"
 "http://www.w3.org/TR/2001/REC-SVG-20010904/DTD/svg10.dtd">
<svg version="1.0" xmlns="http://www.w3.org/2000/svg"
 width="280.000000pt" height="280.000000pt" viewBox="0 0 280.000000 280.000000"
 preserveAspectRatio="xMidYMid meet">
<metadata>
Created by potrace 1.11, written by Peter Selinger 2001-2013
</metadata>
<g transform="translate(0.000000,280.000000) scale(0.100000,-0.100000)"
fill="#000000" stroke="none">
<path d="M0 1400 l0 -1400 1400 0 1400 0 0 1400 0 1400 -1400 0 -1400 0 0
-1400z m1747 737 c40 -14 100 -40 133 -58 68 -36 163 -122 158 -143 -2 -8 -38
-42 -82 -75 l-78 -61 -56 51 c-122 112 -279 151 -454 114 -196 -41 -350 -184
-419 -390 -21 -60 -24 -89 -24 -210 0 -128 2 -147 28 -220 86 -243 283 -386
532 -385 148 1 262 46 359 142 l58 59 84 -57 c46 -31 84 -62 84 -67 0 -26
-152 -156 -226 -194 -125 -64 -186 -77 -354 -78 -152 0 -242 17 -358 66 -136
59 -287 200 -359 335 -71 136 -88 213 -88 404 0 144 3 175 24 245 82 279 294
474 586 541 42 10 108 13 220 10 140 -3 169 -7 232 -29z"/>
</g>
</svg>
